<svg xmlns="http://www.w3.org/2000/svg" viewBox="0 0 80 80">
  <defs>
    <style>
      .cls-1 {
        fill: #909399;
      }

      .cls-2 {
        fill: none;
      }
    </style>
  </defs>
  <g id="ANDROID" transform="translate(18.191 16.697)">
    <g id="Group_461" data-name="Group 461" transform="translate(7.143 4.636)">
      <path id="Path_183" data-name="Path 183" class="cls-1" d="M530.7,48.5v0Z" transform="translate(-526.443 -31.138)"/>
      <path id="Path_184" data-name="Path 184" class="cls-1" d="M588.939,36.531V46.668a2.384,2.384,0,0,1-.77,1.3,2.058,2.058,0,0,1-2.19.365,2.027,2.027,0,0,1-1.338-1.7,1.972,1.972,0,0,1-.041-.487V37.058a2.169,2.169,0,0,1,2.8-2.189A2.28,2.28,0,0,1,588.939,36.531Z" transform="translate(-558.488 -22.981)"/>
      <path id="Path_185" data-name="Path 185" class="cls-1" d="M553.149,50.862a1.6,1.6,0,0,1-1.743,1.743c-.77-.041-1.581,0-2.433,0v5.19A2.136,2.136,0,0,1,545,58.849a2.248,2.248,0,0,1-.284-1.135c-.041-1.541,0-3.082,0-4.663v-.446h-3.163v5.149a2.129,2.129,0,1,1-4.257,0v-5.19H534.7a1.439,1.439,0,0,1-1.5-1.46V35.9h20.03v.405C553.149,41.171,553.149,46.037,553.149,50.862Z" transform="translate(-527.929 -23.647)"/>
      <path id="Path_186" data-name="Path 186" class="cls-1" d="M547.762,9.094a.889.889,0,0,1,.122-.2c.487-.851,1.014-1.743,1.5-2.595.122-.2.162-.405-.081-.568-.243-.122-.365,0-.487.2-.122.243-.284.487-.405.73-.405.73-.811,1.419-1.216,2.149a10.328,10.328,0,0,0-8.555.041c-.041-.081-.081-.122-.122-.2-.446-.892-.892-1.743-1.379-2.636-.081-.2-.243-.365-.487-.243s-.243.324-.122.527l.122.243c.446.851.892,1.743,1.338,2.595a10.529,10.529,0,0,0-5.19,7.785h20.233A10.516,10.516,0,0,0,547.762,9.094Zm-9.447,4.3a.813.813,0,0,1-.811-.811.856.856,0,0,1,.851-.851.813.813,0,0,1,.811.811A.857.857,0,0,1,538.314,13.392Zm9.123,0a.822.822,0,0,1-.811-.851.849.849,0,0,1,.852-.811.831.831,0,0,1-.041,1.662Z" transform="translate(-527.691 -5.68)"/>
      <path id="Path_187" data-name="Path 187" class="cls-1" d="M524.457,42.282v3.974a2.107,2.107,0,0,1-2.635,2.108,2.085,2.085,0,0,1-1.622-2.027V36.808a2.12,2.12,0,0,1,2.108-2.108,2.079,2.079,0,0,1,2.149,2.108v5.474Z" transform="translate(-520.2 -22.934)"/>
    </g>
    <rect id="Rectangle_1115" data-name="Rectangle 1115" class="cls-2" width="80" height="80" transform="translate(-18.191 -16.697)"/>
  </g>
</svg>
